# xmcd CD database file
#
# Track frame offsets:
#	150
#	14700
#	27787
#	42120
#	51780
#	63504
#	78102
#	89701
#	102608
#	116084
#	130553
#	144677
#	158158
#	172034
#	184284
#	196222
#
# Disc length: 2799 seconds
#
# Revision: 0
# Processed by: cddbd v1.5.2PL0 Copyright (c) Steve Scherf et al.
# Submitted via: CDex 1.51
#
DISCID=e00aed10
DTITLE=Various Artist - Jazz - The Essential Collection disc 6
DYEAR=1900
DGENRE=Jazz
TTITLE0=Artie Shaw and His Orchestra (feat. Helen Forrest) - Deep Purple
TTITLE1=Count Basie - Mama Don't Want No Peas and Rice and Coconut Oil
TTITLE2=Cab Calloway - Jitterbug
TTITLE3=Bunny Berrigan and His Boys - It's Been So Long
TTITLE4=Chick Webb and His Orchestra (feat. Ella Fitzgerald) - Sing Me A Swing Song (& Let Me Dance)
TTITLE5=Lionel Hampton and His Orchestra - The Jumpin' Jive
TTITLE6=Slatz Randall and His Orchestra - Skirts
TTITLE7=Glen Gray - Smoke Rings
TTITLE8=Bob Crosby - A Foggy Day
TTITLE9=Fletcher Henderson and His Orchestra - Honeysuckle Rose
TTITLE10=Pee Wee Russell - Home Cooking
TTITLE11=John Kirby and His Onyx Club Boys - Undecided
TTITLE12=Billie Holiday - Strange Fruit
TTITLE13=Louis Armstrong and His Orchestra - Thanks A Million
TTITLE14=Fats Waller - There's Honey On The Moon Tonight
TTITLE15=Duke Ellington and His Famous Orchestra - Drop Me Off In Harlem
EXTD=
EXTT0=
EXTT1=
EXTT2=
EXTT3=
EXTT4=
EXTT5=
EXTT6=
EXTT7=
EXTT8=
EXTT9=
EXTT10=
EXTT11=
EXTT12=
EXTT13=
EXTT14=
EXTT15=
PLAYORDER=
